{
	"asset":{
		"generator":"Khronos glTF Blender I/O v4.2.69",
		"version":"2.0"
	},
	"scene":0,
	"scenes":[
		{
			"name":"Scene",
			"nodes":[
				0,
				1
			]
		}
	],
	"nodes":[
		{
			"mesh":0,
			"name":"Cylinder"
		},
		{
			"mesh":1,
			"name":"Cone",
			"translation":[
				-8.237363815307617,
				0,
				0
			]
		}
	],
	"materials":[
		{
			"doubleSided":true,
			"name":"Material.002",
			"pbrMetallicRoughness":{
				"baseColorFactor":[
					0.015517603605985641,
					0.8002588152885437,
					0,
					1
				],
				"metallicFactor":0,
				"roughnessFactor":0.5
			}
		},
		{
			"doubleSided":true,
			"name":"Material.001",
			"pbrMetallicRoughness":{
				"baseColorFactor":[
					0,
					0,
					0,
					1
				],
				"metallicFactor":0,
				"roughnessFactor":0.5
			}
		}
	],
	"meshes":[
		{
			"name":"Cylinder",
			"primitives":[
				{
					"attributes":{
						"POSITION":0,
						"NORMAL":1,
						"TEXCOORD_0":2
					},
					"indices":3,
					"material":0
				}
			]
		},
		{
			"name":"Cone",
			"primitives":[
				{
					"attributes":{
						"POSITION":4,
						"NORMAL":5,
						"TEXCOORD_0":6
					},
					"indices":7,
					"material":1
				}
			]
		}
	],
	"accessors":[
		{
			"bufferView":0,
			"componentType":5126,
			"count":4992,
			"max":[
				2.422018051147461,
				9.29951000213623,
				1
			],
			"min":[
				-2.8214635848999023,
				-1,
				-1
			],
			"type":"VEC3"
		},
		{
			"bufferView":1,
			"componentType":5126,
			"count":4992,
			"type":"VEC3"
		},
		{
			"bufferView":2,
			"componentType":5126,
			"count":4992,
			"type":"VEC2"
		},
		{
			"bufferView":3,
			"componentType":5123,
			"count":7992,
			"type":"SCALAR"
		},
		{
			"bufferView":4,
			"componentType":5126,
			"count":2816,
			"max":[
				10.901784896850586,
				9.662549018859863,
				1.32102632522583
			],
			"min":[
				5.1204729080200195,
				0.1621806025505066,
				-1.4259189367294312
			],
			"type":"VEC3"
		},
		{
			"bufferView":5,
			"componentType":5126,
			"count":2816,
			"type":"VEC3"
		},
		{
			"bufferView":6,
			"componentType":5126,
			"count":2816,
			"type":"VEC2"
		},
		{
			"bufferView":7,
			"componentType":5123,
			"count":4092,
			"type":"SCALAR"
		}
	],
	"bufferViews":[
		{
			"buffer":0,
			"byteLength":59904,
			"byteOffset":0,
			"target":34962
		},
		{
			"buffer":0,
			"byteLength":59904,
			"byteOffset":59904,
			"target":34962
		},
		{
			"buffer":0,
			"byteLength":39936,
			"byteOffset":119808,
			"target":34962
		},
		{
			"buffer":0,
			"byteLength":15984,
			"byteOffset":159744,
			"target":34963
		},
		{
			"buffer":0,
			"byteLength":33792,
			"byteOffset":175728,
			"target":34962
		},
		{
			"buffer":0,
			"byteLength":33792,
			"byteOffset":209520,
			"target":34962
		},
		{
			"buffer":0,
			"byteLength":22528,
			"byteOffset":243312,
			"target":34962
		},
		{
			"buffer":0,
			"byteLength":8184,
			"byteOffset":265840,
			"target":34963
		}
	],
	"buffers":[
		{
			"byteLength":274024,
			"uri":"Cactus2-a8e7e2eb5af27e37b289bbca53cfd76f.bin"
		}
	]
}
