{
	"asset":{
		"generator":"Khronos glTF Blender I/O v4.2.70",
		"version":"2.0"
	},
	"scene":0,
	"scenes":[
		{
			"name":"Scene",
			"nodes":[
				0,
				1
			]
		}
	],
	"nodes":[
		{
			"mesh":0,
			"name":"Cylinder"
		},
		{
			"mesh":1,
			"name":"Cone",
			"rotation":[
				0.6366002559661865,
				0.1860494166612625,
				-0.23128138482570648,
				0.7117827534675598
			],
			"scale":[
				0.2784494459629059,
				0.4989474415779114,
				0.2784494459629059
			],
			"translation":[
				0.4874967932701111,
				0,
				1.0784963369369507
			]
		}
	],
	"materials":[
		{
			"doubleSided":true,
			"name":"Material.002",
			"pbrMetallicRoughness":{
				"baseColorFactor":[
					0.015207750722765923,
					0.7991040349006653,
					0,
					1
				],
				"metallicFactor":0,
				"roughnessFactor":0.5
			}
		},
		{
			"name":"Material.003"
		},
		{
			"doubleSided":true,
			"name":"Material.001",
			"pbrMetallicRoughness":{
				"baseColorFactor":[
					0,
					0,
					0,
					1
				],
				"metallicFactor":0,
				"roughnessFactor":0.5
			}
		}
	],
	"meshes":[
		{
			"name":"Cylinder",
			"primitives":[
				{
					"attributes":{
						"POSITION":0,
						"NORMAL":1,
						"TEXCOORD_0":2
					},
					"indices":3,
					"material":0
				},
				{
					"attributes":{
						"POSITION":4,
						"NORMAL":5,
						"TEXCOORD_0":6
					},
					"indices":7,
					"material":1
				}
			]
		},
		{
			"name":"Cone",
			"primitives":[
				{
					"attributes":{
						"POSITION":8,
						"NORMAL":9,
						"TEXCOORD_0":10
					},
					"indices":11,
					"material":2
				}
			]
		}
	],
	"accessors":[
		{
			"bufferView":0,
			"componentType":5126,
			"count":2496,
			"max":[
				3.223670721054077,
				9.11502742767334,
				0.8980821371078491
			],
			"min":[
				-2.6596503257751465,
				-0.9097608923912048,
				-0.8980821371078491
			],
			"type":"VEC3"
		},
		{
			"bufferView":1,
			"componentType":5126,
			"count":2496,
			"type":"VEC3"
		},
		{
			"bufferView":2,
			"componentType":5126,
			"count":2496,
			"type":"VEC2"
		},
		{
			"bufferView":3,
			"componentType":5123,
			"count":3996,
			"type":"SCALAR"
		},
		{
			"bufferView":4,
			"componentType":5126,
			"count":2496,
			"max":[
				3.3533482551574707,
				9.235527038574219,
				1
			],
			"min":[
				-2.799044132232666,
				-1,
				-1
			],
			"type":"VEC3"
		},
		{
			"bufferView":5,
			"componentType":5126,
			"count":2496,
			"type":"VEC3"
		},
		{
			"bufferView":6,
			"componentType":5126,
			"count":2496,
			"type":"VEC2"
		},
		{
			"bufferView":7,
			"componentType":5123,
			"count":3996,
			"type":"SCALAR"
		},
		{
			"bufferView":8,
			"componentType":5126,
			"count":1621,
			"max":[
				9.38021469116211,
				3.5737359523773193,
				1
			],
			"min":[
				-7.4457855224609375,
				-5.871742248535156,
				-29.368106842041016
			],
			"type":"VEC3"
		},
		{
			"bufferView":9,
			"componentType":5126,
			"count":1621,
			"type":"VEC3"
		},
		{
			"bufferView":10,
			"componentType":5126,
			"count":1621,
			"type":"VEC2"
		},
		{
			"bufferView":11,
			"componentType":5123,
			"count":4278,
			"type":"SCALAR"
		}
	],
	"bufferViews":[
		{
			"buffer":0,
			"byteLength":29952,
			"byteOffset":0,
			"target":34962
		},
		{
			"buffer":0,
			"byteLength":29952,
			"byteOffset":29952,
			"target":34962
		},
		{
			"buffer":0,
			"byteLength":19968,
			"byteOffset":59904,
			"target":34962
		},
		{
			"buffer":0,
			"byteLength":7992,
			"byteOffset":79872,
			"target":34963
		},
		{
			"buffer":0,
			"byteLength":29952,
			"byteOffset":87864,
			"target":34962
		},
		{
			"buffer":0,
			"byteLength":29952,
			"byteOffset":117816,
			"target":34962
		},
		{
			"buffer":0,
			"byteLength":19968,
			"byteOffset":147768,
			"target":34962
		},
		{
			"buffer":0,
			"byteLength":7992,
			"byteOffset":167736,
			"target":34963
		},
		{
			"buffer":0,
			"byteLength":19452,
			"byteOffset":175728,
			"target":34962
		},
		{
			"buffer":0,
			"byteLength":19452,
			"byteOffset":195180,
			"target":34962
		},
		{
			"buffer":0,
			"byteLength":12968,
			"byteOffset":214632,
			"target":34962
		},
		{
			"buffer":0,
			"byteLength":8556,
			"byteOffset":227600,
			"target":34963
		}
	],
	"buffers":[
		{
			"byteLength":236156,
			"uri":"Cactus3-fe0fa2c30df1173ca4819ab53d63b546.bin"
		}
	]
}
