{
	"asset":{
		"generator":"Khronos glTF Blender I/O v4.2.69",
		"version":"2.0"
	},
	"scene":0,
	"scenes":[
		{
			"name":"Scene",
			"nodes":[
				0,
				1
			]
		}
	],
	"nodes":[
		{
			"mesh":0,
			"name":"Cylinder.002",
			"rotation":[
				0,
				0,
				-0.8026383519172668,
				0.5964659452438354
			],
			"scale":[
				0.43462422490119934,
				0.43462422490119934,
				0.43462419509887695
			],
			"translation":[
				0.8310138583183289,
				4.5304484367370605,
				-0.1464894562959671
			]
		},
		{
			"mesh":1,
			"name":"Cone",
			"rotation":[
				0,
				0,
				0.7441238760948181,
				0.6680416464805603
			],
			"scale":[
				0.21365822851657867,
				0.4092716872692108,
				0.21365822851657867
			],
			"translation":[
				-0.8980075716972351,
				1.058580756187439,
				0
			]
		}
	],
	"materials":[
		{
			"doubleSided":true,
			"name":"Material.002",
			"pbrMetallicRoughness":{
				"baseColorFactor":[
					0.015207750722765923,
					0.7991040349006653,
					0,
					1
				],
				"metallicFactor":0,
				"roughnessFactor":0.5
			}
		},
		{
			"name":"Material.003"
		},
		{
			"doubleSided":true,
			"name":"Material.001",
			"pbrMetallicRoughness":{
				"baseColorFactor":[
					0,
					0,
					0,
					1
				],
				"metallicFactor":0,
				"roughnessFactor":0.5
			}
		}
	],
	"meshes":[
		{
			"name":"Cylinder.002",
			"primitives":[
				{
					"attributes":{
						"POSITION":0,
						"NORMAL":1,
						"TEXCOORD_0":2
					},
					"indices":3,
					"material":0
				},
				{
					"attributes":{
						"POSITION":4,
						"NORMAL":5,
						"TEXCOORD_0":6
					},
					"indices":7,
					"material":1
				}
			]
		},
		{
			"name":"Cone",
			"primitives":[
				{
					"attributes":{
						"POSITION":8,
						"NORMAL":9,
						"TEXCOORD_0":10
					},
					"indices":11,
					"material":2
				}
			]
		}
	],
	"accessors":[
		{
			"bufferView":0,
			"componentType":5126,
			"count":2496,
			"max":[
				13.192259788513184,
				7.331981182098389,
				2.455850839614868
			],
			"min":[
				-6.550121307373047,
				-9.830032348632812,
				-1.7817538976669312
			],
			"type":"VEC3"
		},
		{
			"bufferView":1,
			"componentType":5126,
			"count":2496,
			"type":"VEC3"
		},
		{
			"bufferView":2,
			"componentType":5126,
			"count":2496,
			"type":"VEC2"
		},
		{
			"bufferView":3,
			"componentType":5123,
			"count":3996,
			"type":"SCALAR"
		},
		{
			"bufferView":4,
			"componentType":5126,
			"count":2496,
			"max":[
				13.399009704589844,
				7.578349590301514,
				2.6378870010375977
			],
			"min":[
				-6.791115760803223,
				-10.078445434570312,
				-1.963789939880371
			],
			"type":"VEC3"
		},
		{
			"bufferView":5,
			"componentType":5126,
			"count":2496,
			"type":"VEC3"
		},
		{
			"bufferView":6,
			"componentType":5126,
			"count":2496,
			"type":"VEC2"
		},
		{
			"bufferView":7,
			"componentType":5123,
			"count":3996,
			"type":"SCALAR"
		},
		{
			"bufferView":8,
			"componentType":5126,
			"count":3456,
			"max":[
				28.01240348815918,
				4.863946437835693,
				7.562545299530029
			],
			"min":[
				-4.437385082244873,
				-11.428033828735352,
				-7.650852203369141
			],
			"type":"VEC3"
		},
		{
			"bufferView":9,
			"componentType":5126,
			"count":3456,
			"type":"VEC3"
		},
		{
			"bufferView":10,
			"componentType":5126,
			"count":3456,
			"type":"VEC2"
		},
		{
			"bufferView":11,
			"componentType":5123,
			"count":5022,
			"type":"SCALAR"
		}
	],
	"bufferViews":[
		{
			"buffer":0,
			"byteLength":29952,
			"byteOffset":0,
			"target":34962
		},
		{
			"buffer":0,
			"byteLength":29952,
			"byteOffset":29952,
			"target":34962
		},
		{
			"buffer":0,
			"byteLength":19968,
			"byteOffset":59904,
			"target":34962
		},
		{
			"buffer":0,
			"byteLength":7992,
			"byteOffset":79872,
			"target":34963
		},
		{
			"buffer":0,
			"byteLength":29952,
			"byteOffset":87864,
			"target":34962
		},
		{
			"buffer":0,
			"byteLength":29952,
			"byteOffset":117816,
			"target":34962
		},
		{
			"buffer":0,
			"byteLength":19968,
			"byteOffset":147768,
			"target":34962
		},
		{
			"buffer":0,
			"byteLength":7992,
			"byteOffset":167736,
			"target":34963
		},
		{
			"buffer":0,
			"byteLength":41472,
			"byteOffset":175728,
			"target":34962
		},
		{
			"buffer":0,
			"byteLength":41472,
			"byteOffset":217200,
			"target":34962
		},
		{
			"buffer":0,
			"byteLength":27648,
			"byteOffset":258672,
			"target":34962
		},
		{
			"buffer":0,
			"byteLength":10044,
			"byteOffset":286320,
			"target":34963
		}
	],
	"buffers":[
		{
			"byteLength":296364,
			"uri":"Cactus4-bc61aa3b790490580285e7aca8b1587f.bin"
		}
	]
}
